<svg width="25" height="31" viewBox="0 0 25 31" fill="none" xmlns="http://www.w3.org/2000/svg">
<path d="M21.1162 6.30412V3.22078H22.6162C23.4412 3.22078 24.1162 2.52703 24.1162 1.67912C24.1162 0.831201 23.4412 0.137451 22.6162 0.137451H3.11621C1.46621 0.137451 0.116211 1.52495 0.116211 3.22078V27.8875C0.116211 29.5833 1.46621 30.9708 3.11621 30.9708H22.6162C23.4412 30.9708 24.1162 30.277 24.1162 29.4291C24.1162 28.5812 23.4412 27.8875 22.6162 27.8875H18.0712C19.0139 27.1772 19.7808 26.2489 20.3098 25.1776C20.8387 24.1063 21.115 22.9221 21.1162 21.7208V17.0958C21.1162 15.4 19.7662 14.0125 18.1162 14.0125H9.11621C7.46621 14.0125 6.11621 15.4 6.11621 17.0958V21.7208C6.11621 24.2491 7.33121 26.4845 9.16121 27.8875H3.11621V3.22078H6.11621V6.30412C6.11621 7.15203 6.79121 7.84579 7.61621 7.84579H19.6162C20.4412 7.84579 21.1162 7.15203 21.1162 6.30412Z" fill="black"/>
<path d="M13.6162 12.4708C14.4446 12.4708 15.1162 11.7806 15.1162 10.9291C15.1162 10.0777 14.4446 9.38745 13.6162 9.38745C12.7878 9.38745 12.1162 10.0777 12.1162 10.9291C12.1162 11.7806 12.7878 12.4708 13.6162 12.4708Z" fill="black"/>
</svg>
