<svg width="27" height="27" viewBox="0 0 27 27" fill="none" xmlns="http://www.w3.org/2000/svg">
<path d="M24.0435 23.9585C23.8915 23.1983 22.9538 21.7538 21.2307 19.6252C19.5075 17.4965 17.3746 15.1609 14.832 12.6184C12.2895 10.0758 9.95385 7.94293 7.8252 6.21973C5.69654 4.49653 4.2521 3.55891 3.49186 3.40687C4.91097 2.08913 6.68062 1.29511 8.80083 1.0248C10.921 0.754495 13.1215 1.04592 15.4022 1.89907C17.6829 2.75222 19.7313 4.08685 21.5474 5.90297C23.3635 7.71908 24.6982 9.76749 25.5513 12.0482C26.4045 14.3289 26.6959 16.5293 26.4256 18.6496C26.1553 20.7698 25.3613 22.5394 24.0435 23.9585ZM12.2219 15.2285C14.7644 17.7711 17.1 19.9039 19.2287 21.6271C21.3574 23.3503 22.8018 24.288 23.562 24.44C22.1429 25.7577 20.3733 26.5518 18.2531 26.8221C16.1329 27.0924 13.9324 26.801 11.6517 25.9478C9.37101 25.0946 7.3226 23.76 5.50648 21.9439C3.69037 20.1278 2.35574 18.0794 1.50258 15.7987C0.649433 13.518 0.35801 11.3175 0.628316 9.19731C0.898621 7.07711 1.69264 5.30745 3.01038 3.88835C3.16243 4.64858 4.10005 6.09303 5.82325 8.22168C7.54644 10.3503 9.67932 12.6859 12.2219 15.2285Z" fill="black"/>
</svg>
