<svg width="25" height="26" viewBox="0 0 25 26" fill="none" xmlns="http://www.w3.org/2000/svg">
<path fill-rule="evenodd" clip-rule="evenodd" d="M21.4178 14.3054C20.7596 14.3054 20.1521 14.1575 19.6071 13.9186C18.603 13.4783 17.8453 13.4165 17.5753 12.4643C17.1602 13.5871 15.8743 13.7594 14.2071 14.1201C13.6783 14.2402 13.1371 14.3024 12.5938 14.3054C12.0285 14.3054 11.4919 14.2323 10.9806 14.1201C9.19352 13.7366 7.86546 13.4588 7.55664 12.2205H7.48408C7.28158 13.2735 6.52896 13.4295 5.46752 13.9121C4.90249 14.1681 4.2863 14.3023 3.66189 14.3054C3.17662 14.3045 2.69502 14.2243 2.23764 14.0681L4.51577 22.2663C4.69127 23.1145 5.45739 25.0873 7.08077 25.0873H18.1423C19.7438 25.0873 20.4424 23.1145 20.7073 22.2663L22.9905 14.0324C22.4876 14.2138 21.9548 14.3062 21.4178 14.3054ZM13.3414 23.6231H11.5273V16.92H13.3414V23.6231ZM8.69571 23.472L7.22421 23.6491L6.20327 17.2418L7.6849 17.063L8.69571 23.472ZM17.5382 17.0614L19.0215 17.2401L18.0006 23.6475L16.5274 23.4704L17.5382 17.0614Z" fill="black"/>
<path fill-rule="evenodd" clip-rule="evenodd" d="M12.6293 0.871582C5.75777 0.871582 0.099582 4.86421 0.099582 8.40346C0.099582 8.46683 0.059082 8.89908 0.059082 9.05996C0.059082 10.7678 1.76177 12.1475 3.86102 12.1475C4.49552 12.1475 5.08783 12.0093 5.61602 11.7835C6.68927 11.3252 7.45033 10.4688 7.61402 9.44996C7.86039 10.6395 9.18846 11.608 10.9789 11.9752C11.475 12.0776 11.9965 12.1458 12.5483 12.1458C13.1001 12.1458 13.6215 12.0776 14.1176 11.9752C15.741 11.6437 16.9864 10.8198 17.3931 9.78308C17.6563 10.6606 18.3921 11.3837 19.3691 11.79C19.899 12.0093 20.4896 12.1458 21.1292 12.1458C23.2588 12.1458 24.9818 10.7646 24.9818 9.05833L24.9868 8.40183C24.9851 4.86421 19.5025 0.871582 12.6293 0.871582Z" fill="black"/>
</svg>
