<svg width="65" height="66" viewBox="0 0 65 66" fill="none" xmlns="http://www.w3.org/2000/svg">
<path d="M5.61366 63.4524C4.61499 63.4524 3.70966 63.2378 2.89766 62.8084C2.09499 62.3698 1.46032 61.7678 0.993658 61.0024C0.536324 60.2278 0.307658 59.3551 0.307658 58.3844C0.307658 57.4138 0.536324 56.5458 0.993658 55.7804C1.46032 55.0058 2.09499 54.4038 2.89766 53.9744C3.70966 53.5358 4.61966 53.3164 5.62766 53.3164C6.47699 53.3164 7.24232 53.4658 7.92366 53.7644C8.61432 54.0631 9.19299 54.4924 9.65966 55.0524L8.20366 56.3964C7.54099 55.6311 6.71966 55.2484 5.73966 55.2484C5.13299 55.2484 4.59166 55.3838 4.11566 55.6544C3.63966 55.9158 3.26632 56.2844 2.99566 56.7604C2.73432 57.2364 2.60366 57.7778 2.60366 58.3844C2.60366 58.9911 2.73432 59.5324 2.99566 60.0084C3.26632 60.4844 3.63966 60.8578 4.11566 61.1284C4.59166 61.3898 5.13299 61.5204 5.73966 61.5204C6.71966 61.5204 7.54099 61.1331 8.20366 60.3584L9.65966 61.7024C9.19299 62.2718 8.61432 62.7058 7.92366 63.0044C7.23299 63.3031 6.46299 63.4524 5.61366 63.4524ZM14.3615 63.3964C13.5681 63.3964 12.8541 63.2331 12.2195 62.9064C11.5941 62.5704 11.1041 62.1084 10.7495 61.5204C10.3948 60.9324 10.2175 60.2651 10.2175 59.5184C10.2175 58.7718 10.3948 58.1044 10.7495 57.5164C11.1041 56.9284 11.5941 56.4711 12.2195 56.1444C12.8541 55.8084 13.5681 55.6404 14.3615 55.6404C15.1548 55.6404 15.8641 55.8084 16.4895 56.1444C17.1148 56.4711 17.6048 56.9284 17.9595 57.5164C18.3141 58.1044 18.4915 58.7718 18.4915 59.5184C18.4915 60.2651 18.3141 60.9324 17.9595 61.5204C17.6048 62.1084 17.1148 62.5704 16.4895 62.9064C15.8641 63.2331 15.1548 63.3964 14.3615 63.3964ZM14.3615 61.6044C14.9215 61.6044 15.3788 61.4178 15.7335 61.0444C16.0975 60.6618 16.2795 60.1531 16.2795 59.5184C16.2795 58.8838 16.0975 58.3798 15.7335 58.0064C15.3788 57.6238 14.9215 57.4324 14.3615 57.4324C13.8015 57.4324 13.3395 57.6238 12.9755 58.0064C12.6115 58.3798 12.4295 58.8838 12.4295 59.5184C12.4295 60.1531 12.6115 60.6618 12.9755 61.0444C13.3395 61.4178 13.8015 61.6044 14.3615 61.6044ZM29.5973 55.6404C30.54 55.6404 31.2866 55.9204 31.8373 56.4804C32.3973 57.0311 32.6773 57.8618 32.6773 58.9724V63.2844H30.4933V59.3084C30.4933 58.7111 30.3673 58.2678 30.1153 57.9784C29.8726 57.6798 29.5226 57.5304 29.0653 57.5304C28.552 57.5304 28.146 57.6984 27.8473 58.0344C27.5486 58.3611 27.3993 58.8511 27.3993 59.5044V63.2844H25.2153V59.3084C25.2153 58.1231 24.7393 57.5304 23.7873 57.5304C23.2833 57.5304 22.882 57.6984 22.5833 58.0344C22.2846 58.3611 22.1353 58.8511 22.1353 59.5044V63.2844H19.9513V55.7524H22.0373V56.6204C22.3173 56.3031 22.658 56.0604 23.0593 55.8924C23.47 55.7244 23.918 55.6404 24.4033 55.6404C24.9353 55.6404 25.416 55.7478 25.8453 55.9624C26.2746 56.1678 26.62 56.4711 26.8813 56.8724C27.1893 56.4804 27.5766 56.1771 28.0433 55.9624C28.5193 55.7478 29.0373 55.6404 29.5973 55.6404ZM39.0869 55.6404C39.7869 55.6404 40.4216 55.8038 40.9909 56.1304C41.5696 56.4478 42.0222 56.9004 42.3489 57.4884C42.6756 58.0671 42.8389 58.7438 42.8389 59.5184C42.8389 60.2931 42.6756 60.9744 42.3489 61.5624C42.0222 62.1411 41.5696 62.5938 40.9909 62.9204C40.4216 63.2378 39.7869 63.3964 39.0869 63.3964C38.1256 63.3964 37.3696 63.0931 36.8189 62.4864V66.0004H34.6349V55.7524H36.7209V56.6204C37.2622 55.9671 38.0509 55.6404 39.0869 55.6404ZM38.7089 61.6044C39.2689 61.6044 39.7262 61.4178 40.0809 61.0444C40.4449 60.6618 40.6269 60.1531 40.6269 59.5184C40.6269 58.8838 40.4449 58.3798 40.0809 58.0064C39.7262 57.6238 39.2689 57.4324 38.7089 57.4324C38.1489 57.4324 37.6869 57.6238 37.3229 58.0064C36.9682 58.3798 36.7909 58.8838 36.7909 59.5184C36.7909 60.1531 36.9682 60.6618 37.3229 61.0444C37.6869 61.4178 38.1489 61.6044 38.7089 61.6044ZM44.3009 52.8964H46.4849V63.2844H44.3009V52.8964ZM55.8898 59.5464C55.8898 59.5744 55.8758 59.7704 55.8478 60.1344H50.1498C50.2525 60.6011 50.4952 60.9698 50.8778 61.2404C51.2605 61.5111 51.7365 61.6464 52.3058 61.6464C52.6978 61.6464 53.0432 61.5904 53.3418 61.4784C53.6498 61.3571 53.9345 61.1704 54.1958 60.9184L55.3578 62.1784C54.6485 62.9904 53.6125 63.3964 52.2498 63.3964C51.4005 63.3964 50.6492 63.2331 49.9958 62.9064C49.3425 62.5704 48.8385 62.1084 48.4838 61.5204C48.1292 60.9324 47.9518 60.2651 47.9518 59.5184C47.9518 58.7811 48.1245 58.1184 48.4698 57.5304C48.8245 56.9331 49.3052 56.4711 49.9118 56.1444C50.5278 55.8084 51.2138 55.6404 51.9698 55.6404C52.7072 55.6404 53.3745 55.7991 53.9718 56.1164C54.5692 56.4338 55.0358 56.8911 55.3718 57.4884C55.7172 58.0764 55.8898 58.7624 55.8898 59.5464ZM51.9838 57.2924C51.4892 57.2924 51.0738 57.4324 50.7378 57.7124C50.4018 57.9924 50.1965 58.3751 50.1218 58.8604H53.8318C53.7572 58.3844 53.5518 58.0064 53.2158 57.7264C52.8798 57.4371 52.4692 57.2924 51.9838 57.2924ZM61.9268 63.2844L60.2748 60.9744L58.5668 63.2844H56.1868L59.0848 59.4904L56.2848 55.7524H58.7348L60.3308 57.9504L61.9688 55.7524H64.2928L61.4928 59.4344L64.4048 63.2844H61.9268Z" fill="#329AF7"/>
<g clip-path="url(#clip0)">
<path d="M9.06396 4.87806C9.06396 2.38246 11.087 0.359375 13.5827 0.359375H50.6359C53.1315 0.359375 55.1546 2.38246 55.1546 4.87806V41.9313C55.1546 44.4269 53.1315 46.45 50.6359 46.45H13.5827C11.087 46.45 9.06396 44.4269 9.06396 41.9313V4.87806Z" fill="#F7DF1E"/>
<path d="M21.1829 38.8761L24.7099 36.7415C25.3905 37.948 26.0095 38.9688 27.4943 38.9688C28.9175 38.9688 29.815 38.4121 29.815 36.2466V21.5195H34.1463V36.3078C34.1463 40.7939 31.5166 42.8359 27.6799 42.8359C24.215 42.8359 22.2038 41.0414 21.1827 38.8757" fill="black"/>
<path d="M36.4989 38.4116L40.0255 36.3698C40.954 37.8859 42.1606 38.9996 44.2952 38.9996C46.09 38.9996 47.2344 38.1023 47.2344 36.8647C47.2344 35.3797 46.0587 34.8536 44.0786 33.9876L42.996 33.5231C39.871 32.1932 37.7982 30.5224 37.7982 26.9954C37.7982 23.7467 40.2733 21.2715 44.1407 21.2715C46.8943 21.2715 48.8744 22.2307 50.2974 24.7367L46.9249 26.9026C46.1822 25.5723 45.3781 25.0464 44.1405 25.0464C42.872 25.0464 42.0675 25.8508 42.0675 26.9026C42.0675 28.202 42.872 28.7283 44.7282 29.5327L45.811 29.9967C49.4928 31.5747 51.5656 33.1834 51.5656 36.8029C51.5656 40.7016 48.5028 42.8361 44.3879 42.8361C40.366 42.8361 37.7671 40.918 36.4987 38.4118" fill="black"/>
</g>
<defs>
<clipPath id="clip0">
<rect width="46.0906" height="46.0906" fill="white" transform="translate(9.06396 0.359375)"/>
</clipPath>
</defs>
</svg>
