<svg width="65" height="76" viewBox="0 0 65 76" fill="none" xmlns="http://www.w3.org/2000/svg">
<path d="M5.5044 73.4524C4.50574 73.4524 3.6004 73.2378 2.7884 72.8084C1.98574 72.3698 1.35107 71.7678 0.884405 71.0024C0.427071 70.2278 0.198405 69.3551 0.198405 68.3844C0.198405 67.4138 0.427071 66.5458 0.884405 65.7804C1.35107 65.0058 1.98574 64.4038 2.7884 63.9744C3.6004 63.5358 4.51041 63.3164 5.51841 63.3164C6.36774 63.3164 7.13307 63.4658 7.8144 63.7644C8.50507 64.0631 9.08374 64.4924 9.55041 65.0524L8.09441 66.3964C7.43174 65.6311 6.6104 65.2484 5.63041 65.2484C5.02374 65.2484 4.48241 65.3838 4.00641 65.6544C3.53041 65.9158 3.15707 66.2844 2.8864 66.7604C2.62507 67.2364 2.4944 67.7778 2.4944 68.3844C2.4944 68.9911 2.62507 69.5324 2.8864 70.0084C3.15707 70.4844 3.53041 70.8578 4.00641 71.1284C4.48241 71.3898 5.02374 71.5204 5.63041 71.5204C6.6104 71.5204 7.43174 71.1331 8.09441 70.3584L9.55041 71.7024C9.08374 72.2718 8.50507 72.7058 7.8144 73.0044C7.12374 73.3031 6.35374 73.4524 5.5044 73.4524ZM14.2522 73.3964C13.4589 73.3964 12.7449 73.2331 12.1102 72.9064C11.4849 72.5704 10.9949 72.1084 10.6402 71.5204C10.2856 70.9324 10.1082 70.2651 10.1082 69.5184C10.1082 68.7718 10.2856 68.1044 10.6402 67.5164C10.9949 66.9284 11.4849 66.4711 12.1102 66.1444C12.7449 65.8084 13.4589 65.6404 14.2522 65.6404C15.0456 65.6404 15.7549 65.8084 16.3802 66.1444C17.0056 66.4711 17.4956 66.9284 17.8502 67.5164C18.2049 68.1044 18.3822 68.7718 18.3822 69.5184C18.3822 70.2651 18.2049 70.9324 17.8502 71.5204C17.4956 72.1084 17.0056 72.5704 16.3802 72.9064C15.7549 73.2331 15.0456 73.3964 14.2522 73.3964ZM14.2522 71.6044C14.8122 71.6044 15.2696 71.4178 15.6242 71.0444C15.9882 70.6618 16.1702 70.1531 16.1702 69.5184C16.1702 68.8838 15.9882 68.3798 15.6242 68.0064C15.2696 67.6238 14.8122 67.4324 14.2522 67.4324C13.6922 67.4324 13.2302 67.6238 12.8662 68.0064C12.5022 68.3798 12.3202 68.8838 12.3202 69.5184C12.3202 70.1531 12.5022 70.6618 12.8662 71.0444C13.2302 71.4178 13.6922 71.6044 14.2522 71.6044ZM29.488 65.6404C30.4307 65.6404 31.1774 65.9204 31.728 66.4804C32.288 67.0311 32.568 67.8618 32.568 68.9724V73.2844H30.384V69.3084C30.384 68.7111 30.258 68.2678 30.006 67.9784C29.7634 67.6798 29.4134 67.5304 28.956 67.5304C28.4427 67.5304 28.0367 67.6984 27.738 68.0344C27.4394 68.3611 27.29 68.8511 27.29 69.5044V73.2844H25.106V69.3084C25.106 68.1231 24.63 67.5304 23.678 67.5304C23.174 67.5304 22.7727 67.6984 22.474 68.0344C22.1754 68.3611 22.026 68.8511 22.026 69.5044V73.2844H19.842V65.7524H21.928V66.6204C22.208 66.3031 22.5487 66.0604 22.95 65.8924C23.3607 65.7244 23.8087 65.6404 24.294 65.6404C24.826 65.6404 25.3067 65.7478 25.736 65.9624C26.1654 66.1678 26.5107 66.4711 26.772 66.8724C27.08 66.4804 27.4674 66.1771 27.934 65.9624C28.41 65.7478 28.928 65.6404 29.488 65.6404ZM38.9776 65.6404C39.6776 65.6404 40.3123 65.8038 40.8816 66.1304C41.4603 66.4478 41.913 66.9004 42.2396 67.4884C42.5663 68.0671 42.7296 68.7438 42.7296 69.5184C42.7296 70.2931 42.5663 70.9744 42.2396 71.5624C41.913 72.1411 41.4603 72.5938 40.8816 72.9204C40.3123 73.2378 39.6776 73.3964 38.9776 73.3964C38.0163 73.3964 37.2603 73.0931 36.7096 72.4864V76.0004H34.5256V65.7524H36.6116V66.6204C37.153 65.9671 37.9416 65.6404 38.9776 65.6404ZM38.5996 71.6044C39.1596 71.6044 39.617 71.4178 39.9716 71.0444C40.3356 70.6618 40.5176 70.1531 40.5176 69.5184C40.5176 68.8838 40.3356 68.3798 39.9716 68.0064C39.617 67.6238 39.1596 67.4324 38.5996 67.4324C38.0396 67.4324 37.5776 67.6238 37.2136 68.0064C36.859 68.3798 36.6816 68.8838 36.6816 69.5184C36.6816 70.1531 36.859 70.6618 37.2136 71.0444C37.5776 71.4178 38.0396 71.6044 38.5996 71.6044ZM44.1917 62.8964H46.3757V73.2844H44.1917V62.8964ZM55.7806 69.5464C55.7806 69.5744 55.7666 69.7704 55.7386 70.1344H50.0406C50.1433 70.6011 50.3859 70.9698 50.7686 71.2404C51.1513 71.5111 51.6273 71.6464 52.1966 71.6464C52.5886 71.6464 52.9339 71.5904 53.2326 71.4784C53.5406 71.3571 53.8253 71.1704 54.0866 70.9184L55.2486 72.1784C54.5393 72.9904 53.5033 73.3964 52.1406 73.3964C51.2913 73.3964 50.5399 73.2331 49.8866 72.9064C49.2333 72.5704 48.7293 72.1084 48.3746 71.5204C48.0199 70.9324 47.8426 70.2651 47.8426 69.5184C47.8426 68.7811 48.0153 68.1184 48.3606 67.5304C48.7153 66.9331 49.1959 66.4711 49.8026 66.1444C50.4186 65.8084 51.1046 65.6404 51.8606 65.6404C52.5979 65.6404 53.2653 65.7991 53.8626 66.1164C54.4599 66.4338 54.9266 66.8911 55.2626 67.4884C55.6079 68.0764 55.7806 68.7624 55.7806 69.5464ZM51.8746 67.2924C51.3799 67.2924 50.9646 67.4324 50.6286 67.7124C50.2926 67.9924 50.0873 68.3751 50.0126 68.8604H53.7226C53.6479 68.3844 53.4426 68.0064 53.1066 67.7264C52.7706 67.4371 52.3599 67.2924 51.8746 67.2924ZM61.8175 73.2844L60.1655 70.9744L58.4575 73.2844H56.0775L58.9755 69.4904L56.1755 65.7524H58.6255L60.2215 67.9504L61.8595 65.7524H64.1835L61.3835 69.4344L64.2955 73.2844H61.8175Z" fill="#329AF7"/>
<g clip-path="url(#clip0)">
<path d="M25.0766 42.1038C25.0766 42.1038 23.066 43.3016 26.5076 43.7069C30.6771 44.1942 32.8079 44.1244 37.4027 43.2334C37.4027 43.2334 38.6108 44.0094 40.2977 44.6816C29.9976 49.204 16.9862 44.4195 25.0766 42.1038Z" fill="#329AF7"/>
<path d="M23.818 36.2021C23.818 36.2021 21.5628 37.9124 25.007 38.2772C29.4609 38.7479 32.9782 38.7865 39.0647 37.5859C39.0647 37.5859 39.9065 38.4602 41.2302 38.9383C28.7766 42.669 14.9055 39.2325 23.818 36.2021Z" fill="#329AF7"/>
<path d="M34.4287 26.1911C36.9667 29.1845 33.7619 31.8782 33.7619 31.8782C33.7619 31.8782 40.2062 28.4702 37.2466 24.2023C34.4825 20.2225 32.3626 18.2448 43.8382 11.4268C43.8382 11.4268 25.8254 16.0355 34.4287 26.1909" fill="#E71C00"/>
<path d="M48.0516 46.4689C48.0516 46.4689 49.5395 47.7247 46.4128 48.6964C40.4674 50.5416 21.6673 51.0988 16.4447 48.7699C14.5673 47.9334 18.088 46.7723 19.1954 46.5285C20.3503 46.2719 21.0104 46.3198 21.0104 46.3198C18.9225 44.813 7.51535 49.2784 15.2162 50.5571C36.2172 54.0462 53.4989 48.9861 48.0516 46.4689Z" fill="#329AF7"/>
<path d="M26.0434 30.0876C26.0434 30.0876 16.4806 32.4146 22.6571 33.2594C25.2649 33.6171 30.4636 33.5363 35.3062 33.1205C39.2638 32.7787 43.2377 32.0515 43.2377 32.0515C43.2377 32.0515 41.8422 32.6637 40.8326 33.3699C31.1216 35.9864 12.3617 34.7692 17.7624 32.0928C22.3299 29.8311 26.0435 30.0876 26.0435 30.0876" fill="#329AF7"/>
<path d="M43.1982 39.9107C53.0701 34.6556 48.5057 29.6055 45.3199 30.2859C44.539 30.4523 44.1909 30.5965 44.1909 30.5965C44.1909 30.5965 44.4808 30.1314 45.0344 29.9301C51.3369 27.6601 56.184 36.625 42.9998 40.1756C42.9998 40.1757 43.1526 40.0359 43.1982 39.9107Z" fill="#329AF7"/>
<path d="M37.2466 0.417392C37.2466 0.417392 42.7138 6.02028 32.0613 14.6355C23.5192 21.5465 30.1134 25.487 32.0578 29.9891C27.0716 25.3804 23.4123 21.3232 25.8673 17.5473C29.4704 12.0041 39.4524 9.31678 37.2466 0.417236" fill="#E71C00"/>
<path d="M27.0135 54.1512C36.4891 54.7726 51.04 53.8064 51.3846 49.2131C51.3846 49.2131 50.7222 50.9546 43.5535 52.3373C35.4659 53.8965 25.491 53.7145 19.5747 52.7152C19.5749 52.7152 20.7859 53.7421 27.0137 54.1512" fill="#329AF7"/>
</g>
<defs>
<clipPath id="clip0">
<rect width="39" height="54" fill="white" transform="translate(12.5 0.359375)"/>
</clipPath>
</defs>
</svg>
