<svg width="65" height="65" viewBox="0 0 65 65" fill="none" xmlns="http://www.w3.org/2000/svg">
<path d="M5.39515 62.4524C4.39649 62.4524 3.49115 62.2378 2.67915 61.8084C1.87649 61.3698 1.24182 60.7678 0.775152 60.0024C0.317819 59.2278 0.0891519 58.3551 0.0891519 57.3844C0.0891519 56.4138 0.317819 55.5458 0.775152 54.7804C1.24182 54.0058 1.87649 53.4038 2.67915 52.9744C3.49115 52.5358 4.40115 52.3164 5.40915 52.3164C6.25849 52.3164 7.02382 52.4658 7.70515 52.7644C8.39582 53.0631 8.97449 53.4924 9.44115 54.0524L7.98515 55.3964C7.32249 54.6311 6.50115 54.2484 5.52115 54.2484C4.91449 54.2484 4.37315 54.3838 3.89715 54.6544C3.42115 54.9158 3.04782 55.2844 2.77715 55.7604C2.51582 56.2364 2.38515 56.7778 2.38515 57.3844C2.38515 57.9911 2.51582 58.5324 2.77715 59.0084C3.04782 59.4844 3.42115 59.8578 3.89715 60.1284C4.37315 60.3898 4.91449 60.5204 5.52115 60.5204C6.50115 60.5204 7.32249 60.1331 7.98515 59.3584L9.44115 60.7024C8.97449 61.2718 8.39582 61.7058 7.70515 62.0044C7.01449 62.3031 6.24449 62.4524 5.39515 62.4524ZM14.143 62.3964C13.3496 62.3964 12.6356 62.2331 12.001 61.9064C11.3756 61.5704 10.8856 61.1084 10.531 60.5204C10.1763 59.9324 9.99896 59.2651 9.99896 58.5184C9.99896 57.7718 10.1763 57.1044 10.531 56.5164C10.8856 55.9284 11.3756 55.4711 12.001 55.1444C12.6356 54.8084 13.3496 54.6404 14.143 54.6404C14.9363 54.6404 15.6456 54.8084 16.271 55.1444C16.8963 55.4711 17.3863 55.9284 17.741 56.5164C18.0956 57.1044 18.273 57.7718 18.273 58.5184C18.273 59.2651 18.0956 59.9324 17.741 60.5204C17.3863 61.1084 16.8963 61.5704 16.271 61.9064C15.6456 62.2331 14.9363 62.3964 14.143 62.3964ZM14.143 60.6044C14.703 60.6044 15.1603 60.4178 15.515 60.0444C15.879 59.6618 16.061 59.1531 16.061 58.5184C16.061 57.8838 15.879 57.3798 15.515 57.0064C15.1603 56.6238 14.703 56.4324 14.143 56.4324C13.583 56.4324 13.121 56.6238 12.757 57.0064C12.393 57.3798 12.211 57.8838 12.211 58.5184C12.211 59.1531 12.393 59.6618 12.757 60.0444C13.121 60.4178 13.583 60.6044 14.143 60.6044ZM29.3788 54.6404C30.3215 54.6404 31.0681 54.9204 31.6188 55.4804C32.1788 56.0311 32.4588 56.8618 32.4588 57.9724V62.2844H30.2748V58.3084C30.2748 57.7111 30.1488 57.2678 29.8968 56.9784C29.6541 56.6798 29.3041 56.5304 28.8468 56.5304C28.3335 56.5304 27.9275 56.6984 27.6288 57.0344C27.3301 57.3611 27.1808 57.8511 27.1808 58.5044V62.2844H24.9968V58.3084C24.9968 57.1231 24.5208 56.5304 23.5688 56.5304C23.0648 56.5304 22.6635 56.6984 22.3648 57.0344C22.0661 57.3611 21.9168 57.8511 21.9168 58.5044V62.2844H19.7328V54.7524H21.8188V55.6204C22.0988 55.3031 22.4395 55.0604 22.8408 54.8924C23.2515 54.7244 23.6995 54.6404 24.1848 54.6404C24.7168 54.6404 25.1975 54.7478 25.6268 54.9624C26.0561 55.1678 26.4015 55.4711 26.6628 55.8724C26.9708 55.4804 27.3581 55.1771 27.8248 54.9624C28.3008 54.7478 28.8188 54.6404 29.3788 54.6404ZM38.8684 54.6404C39.5684 54.6404 40.2031 54.8038 40.7724 55.1304C41.3511 55.4478 41.8037 55.9004 42.1304 56.4884C42.4571 57.0671 42.6204 57.7438 42.6204 58.5184C42.6204 59.2931 42.4571 59.9744 42.1304 60.5624C41.8037 61.1411 41.3511 61.5938 40.7724 61.9204C40.2031 62.2378 39.5684 62.3964 38.8684 62.3964C37.9071 62.3964 37.1511 62.0931 36.6004 61.4864V65.0004H34.4164V54.7524H36.5024V55.6204C37.0437 54.9671 37.8324 54.6404 38.8684 54.6404ZM38.4904 60.6044C39.0504 60.6044 39.5077 60.4178 39.8624 60.0444C40.2264 59.6618 40.4084 59.1531 40.4084 58.5184C40.4084 57.8838 40.2264 57.3798 39.8624 57.0064C39.5077 56.6238 39.0504 56.4324 38.4904 56.4324C37.9304 56.4324 37.4684 56.6238 37.1044 57.0064C36.7497 57.3798 36.5724 57.8838 36.5724 58.5184C36.5724 59.1531 36.7497 59.6618 37.1044 60.0444C37.4684 60.4178 37.9304 60.6044 38.4904 60.6044ZM44.0824 51.8964H46.2664V62.2844H44.0824V51.8964ZM55.6713 58.5464C55.6713 58.5744 55.6573 58.7704 55.6293 59.1344H49.9313C50.034 59.6011 50.2767 59.9698 50.6593 60.2404C51.042 60.5111 51.518 60.6464 52.0873 60.6464C52.4793 60.6464 52.8247 60.5904 53.1233 60.4784C53.4313 60.3571 53.716 60.1704 53.9773 59.9184L55.1393 61.1784C54.43 61.9904 53.394 62.3964 52.0313 62.3964C51.182 62.3964 50.4307 62.2331 49.7773 61.9064C49.124 61.5704 48.62 61.1084 48.2653 60.5204C47.9107 59.9324 47.7333 59.2651 47.7333 58.5184C47.7333 57.7811 47.906 57.1184 48.2513 56.5304C48.606 55.9331 49.0867 55.4711 49.6933 55.1444C50.3093 54.8084 50.9953 54.6404 51.7513 54.6404C52.4887 54.6404 53.156 54.7991 53.7533 55.1164C54.3507 55.4338 54.8173 55.8911 55.1533 56.4884C55.4987 57.0764 55.6713 57.7624 55.6713 58.5464ZM51.7653 56.2924C51.2707 56.2924 50.8553 56.4324 50.5193 56.7124C50.1833 56.9924 49.978 57.3751 49.9033 57.8604H53.6133C53.5387 57.3844 53.3333 57.0064 52.9973 56.7264C52.6613 56.4371 52.2507 56.2924 51.7653 56.2924ZM61.7083 62.2844L60.0563 59.9744L58.3483 62.2844H55.9683L58.8663 58.4904L56.0663 54.7524H58.5163L60.1123 56.9504L61.7503 54.7524H64.0743L61.2743 58.4344L64.1863 62.2844H61.7083Z" fill="#329AF7"/>
<path d="M31.7219 3.42168C21.2938 3.42168 21.9532 7.93074 21.9532 7.93074V12.6161H31.8702V14.0848H18.0038C18.0038 14.0848 11.3283 13.2623 11.3283 23.8446C11.3283 34.427 17.2224 33.9966 17.2224 33.9966H20.6255V29.0602C20.6255 29.0602 20.4346 23.1661 26.3536 23.1661H36.2853C36.2853 23.1661 41.8254 23.2542 41.8254 17.8022V8.85605C41.8254 8.85605 42.6656 3.40405 31.7762 3.40405L31.7219 3.42168ZM26.2405 6.5604C26.5931 6.5515 26.9404 6.64736 27.2384 6.83584C27.5365 7.02432 27.772 7.29696 27.9151 7.61929C28.0583 7.94161 28.1026 8.29914 28.0425 8.64666C27.9824 8.99417 27.8206 9.31607 27.5776 9.57163C27.3346 9.82719 27.0212 10.0049 26.6771 10.0824C26.3331 10.1599 25.9738 10.1336 25.6447 10.0068C25.3156 9.88007 25.0314 9.65858 24.8282 9.37034C24.625 9.08211 24.5118 8.74008 24.503 8.38752V8.35815C24.503 7.88525 24.6909 7.43172 25.0252 7.09733C25.3596 6.76294 25.8132 6.57508 26.2861 6.57508L26.2405 6.5604Z" fill="url(#paint0_linear)"/>
<path d="M32.0157 44.2677C42.4438 44.2677 41.7843 39.744 41.7843 39.744V35.0734H31.8688V33.6046H45.7778C45.7778 33.6046 52.4533 34.3508 52.4533 23.8301C52.4533 13.3094 46.5592 13.6781 46.5592 13.6781H43.1121V18.5499C43.1121 18.5499 43.303 24.444 37.3839 24.444H27.4478C27.4478 24.444 21.9033 24.3603 21.9033 29.8123V38.8187C21.9033 38.8187 21.0632 44.2707 31.9525 44.2707H32.0113L32.0157 44.2677ZM37.497 41.1143C37.1445 41.1232 36.7972 41.0274 36.4991 40.8389C36.201 40.6504 35.9655 40.3778 35.8224 40.0555C35.6793 39.7331 35.635 39.3756 35.6951 39.0281C35.7551 38.6806 35.9169 38.3587 36.16 38.1031C36.403 37.8475 36.7164 37.6698 37.0604 37.5923C37.4045 37.5149 37.7638 37.5412 38.0929 37.6679C38.422 37.7947 38.7061 38.0162 38.9093 38.3044C39.1126 38.5926 39.2257 38.9347 39.2346 39.2872V39.3313C39.2346 39.8042 39.0467 40.2577 38.7123 40.5921C38.3779 40.9265 37.9244 41.1143 37.4515 41.1143H37.4956H37.497Z" fill="url(#paint1_linear)"/>
<defs>
<linearGradient id="paint0_linear" x1="15.3926" y1="7.42094" x2="34.9074" y2="26.8915" gradientUnits="userSpaceOnUse">
<stop stop-color="#387EB8"/>
<stop offset="1" stop-color="#366994"/>
</linearGradient>
<linearGradient id="paint1_linear" x1="26.9375" y1="20.1047" x2="49.2334" y2="39.5694" gradientUnits="userSpaceOnUse">
<stop stop-color="#FFE052"/>
<stop offset="1" stop-color="#FFC331"/>
</linearGradient>
</defs>
</svg>
