<svg width="37" height="37" viewBox="0 0 37 37" fill="none" xmlns="http://www.w3.org/2000/svg">
<path d="M34.9041 0.575195H2.29288C1.50861 0.575195 0.875 1.20881 0.875 1.99307V34.6043C0.875 35.3885 1.50861 36.0221 2.29288 36.0221H34.9041C35.6883 36.0221 36.3219 35.3885 36.3219 34.6043V1.99307C36.3219 1.20881 35.6883 0.575195 34.9041 0.575195ZM27.9786 10.9213C25.7588 10.9213 25.329 11.9758 25.329 13.5266V16.9428H30.6283L29.9371 22.2909H25.329V36.0221H19.8037V22.2953H15.1823V16.9428H19.8037V12.9994C19.8037 8.42226 22.5995 5.92768 26.6848 5.92768C28.6433 5.92768 30.3226 6.0739 30.8144 6.14037V10.9213H27.9786Z" fill="white"/>
</svg>
