<svg width="36" height="37" viewBox="0 0 36 37" fill="none" xmlns="http://www.w3.org/2000/svg">
<path d="M23.5809 18.4735C23.5809 19.5954 23.2482 20.6921 22.625 21.6249C22.0017 22.5577 21.1158 23.2848 20.0793 23.7141C19.0428 24.1434 17.9023 24.2557 16.802 24.0369C15.7017 23.818 14.691 23.2778 13.8977 22.4845C13.1044 21.6912 12.5641 20.6805 12.3453 19.5802C12.1264 18.4798 12.2387 17.3393 12.6681 16.3028C13.0974 15.2664 13.8244 14.3805 14.7572 13.7572C15.69 13.1339 16.7867 12.8012 17.9086 12.8012C19.4125 12.803 20.8542 13.4011 21.9176 14.4645C22.981 15.5279 23.5792 16.9697 23.5809 18.4735ZM35.6346 10.6741V26.273C35.6316 28.9047 34.5848 31.4279 32.7239 33.2888C30.8629 35.1497 28.3398 36.1965 25.708 36.1995H10.1092C7.47741 36.1965 4.95429 35.1497 3.09335 33.2888C1.23241 31.4279 0.18562 28.9047 0.182617 26.273V10.6741C0.18562 8.04235 1.23241 5.51924 3.09335 3.6583C4.95429 1.79736 7.47741 0.750561 10.1092 0.747559H25.708C28.3398 0.750561 30.8629 1.79736 32.7239 3.6583C34.5848 5.51924 35.6316 8.04235 35.6346 10.6741ZM26.4171 18.4735C26.4171 16.7907 25.9181 15.1457 24.9831 13.7465C24.0482 12.3473 22.7194 11.2567 21.1647 10.6127C19.6099 9.96876 17.8992 9.80026 16.2487 10.1286C14.5982 10.4569 13.0821 11.2672 11.8922 12.4571C10.7023 13.6471 9.89192 15.1631 9.56362 16.8136C9.23532 18.4641 9.40382 20.1749 10.0478 21.7296C10.6918 23.2843 11.7823 24.6132 13.1816 25.5481C14.5808 26.483 16.2258 26.982 17.9086 26.982C20.1644 26.9795 22.3271 26.0823 23.9222 24.4872C25.5173 22.8921 26.4146 20.7294 26.4171 18.4735ZM29.2532 9.25603C29.2532 8.83533 29.1285 8.42407 28.8948 8.07427C28.661 7.72447 28.3288 7.45183 27.9401 7.29083C27.5515 7.12984 27.1238 7.08771 26.7111 7.16979C26.2985 7.25186 25.9195 7.45445 25.622 7.75193C25.3245 8.04942 25.122 8.42843 25.0399 8.84105C24.9578 9.25367 24.9999 9.68137 25.1609 10.07C25.3219 10.4587 25.5946 10.7909 25.9444 11.0247C26.2942 11.2584 26.7054 11.3832 27.1261 11.3832C27.6903 11.3832 28.2313 11.159 28.6302 10.7601C29.0291 10.3612 29.2532 9.82018 29.2532 9.25603Z" fill="white"/>
</svg>
