<svg width="101" height="100" viewBox="0 0 101 100" fill="none" xmlns="http://www.w3.org/2000/svg">
<circle cx="50.5208" cy="49.9399" r="49.5679" fill="black"/>
<g clip-path="url(#clip0)">
<path d="M20.1523 20.0325H80.1694V80.0496H20.1523V20.0325Z" fill="#F7DF1E"/>
<path d="M35.9303 70.1796L40.5254 67.3897C41.4162 68.9604 42.2133 70.2968 44.1592 70.2968C46.0113 70.2968 47.1835 69.57 47.1835 66.7567V47.5793H52.8335V66.827C52.8335 72.6647 49.4107 75.3373 44.4171 75.3373C39.8924 75.3373 37.2666 73.0163 35.9303 70.1796Z" fill="black"/>
<path d="M55.8813 69.5935L60.4764 66.9443C61.6956 68.9136 63.2663 70.3672 66.0328 70.3672C68.3771 70.3672 69.8541 69.1949 69.8541 67.5773C69.8541 65.6549 68.3302 64.9515 65.7514 63.8262L64.3447 63.2166C60.2654 61.4818 57.5694 59.3015 57.5694 54.7064C57.5694 50.4865 60.7812 47.2512 65.8217 47.2512C69.4086 47.2512 71.9875 48.4938 73.8396 51.7525L69.4556 54.5658C68.4943 52.8309 67.4394 52.151 65.8217 52.151C64.1806 52.151 63.1256 53.206 63.1256 54.5658C63.1256 56.2538 64.1806 56.9336 66.5954 57.9887L68.002 58.5981C72.7846 60.6613 75.5041 62.7478 75.5041 67.46C75.5041 72.5475 71.5186 75.3139 66.1499 75.3139C60.9219 75.3373 57.5224 72.8522 55.8813 69.5935Z" fill="black"/>
</g>
<defs>
<clipPath id="clip0">
<rect width="60.0171" height="60.0171" fill="white" transform="translate(20.1523 20.0325)"/>
</clipPath>
</defs>
</svg>
