<svg width="100" height="100" viewBox="0 0 100 100" fill="none" xmlns="http://www.w3.org/2000/svg">
<circle cx="50.1126" cy="49.9399" r="49.5679" fill="black"/>
<g clip-path="url(#clip0)">
<path d="M73.9893 37.8539C73.22 37.5864 72.3839 37.3188 71.5476 37.0846C71.6814 36.516 71.8152 35.9808 71.9155 35.4122C73.7552 26.4815 72.551 19.2567 68.4369 16.9153C64.4901 14.6409 58.0345 17.0157 51.5455 22.6684C50.91 23.2036 50.308 23.8057 49.6724 24.4077C49.2377 24.0064 48.8363 23.605 48.4349 23.237C41.6114 17.1829 34.7546 14.6074 30.6739 17.0157C26.727 19.2902 25.5563 26.0801 27.2287 34.5425C27.3959 35.3453 27.5632 36.1815 27.7974 37.0511C26.8273 37.3188 25.8908 37.6197 24.9877 37.9208C16.9936 40.6971 11.876 45.0787 11.876 49.6277C11.876 54.3105 17.3615 58.9932 25.6901 61.8698C26.3591 62.1039 27.0281 62.3046 27.7305 62.5053C27.4963 63.4084 27.2956 64.3115 27.1284 65.2145C25.5563 73.5432 26.7939 80.166 30.7073 82.4069C34.7546 84.7484 41.578 82.34 48.2007 76.5535C48.7359 76.0853 49.2377 75.617 49.7728 75.1152C50.4418 75.7842 51.1442 76.3862 51.8132 76.9883C58.2352 82.5073 64.5904 84.7484 68.5039 82.4738C72.551 80.1325 73.889 73.0415 72.1497 64.3784C72.0159 63.7094 71.8821 63.0405 71.6814 62.3715C72.1497 62.2377 72.6179 62.0704 73.0863 61.9366C81.7493 59.0601 87.4021 54.4108 87.4021 49.6946C87.4021 45.0787 82.1507 40.6636 73.9893 37.8539Z" fill="#53C1DE"/>
<path d="M72.0826 58.8255C71.6812 58.9592 71.2464 59.093 70.8116 59.2268C69.8415 56.183 68.5705 52.972 66.9985 49.6606C68.5036 46.4162 69.7412 43.2385 70.6778 40.2282C71.4471 40.4624 72.2164 40.6965 72.9188 40.9306C79.9095 43.3389 84.1908 46.8844 84.1908 49.6272C84.1908 52.5371 79.575 56.3502 72.0826 58.8255ZM69.0054 64.9798C69.7746 68.7929 69.875 72.2381 69.3733 74.9474C68.9385 77.3891 68.0019 78.9947 66.8981 79.6302C64.5232 81.0016 59.4392 79.2289 53.9203 74.4792C53.2847 73.944 52.6492 73.3753 52.0136 72.7398C54.1543 70.3985 56.2616 67.6892 58.3354 64.7123C61.9812 64.3778 65.4264 63.8426 68.5705 63.1402C68.7377 63.7757 68.8716 64.3778 69.0054 64.9798ZM37.5974 79.396C35.2561 80.2323 33.4164 80.2323 32.3126 79.5967C29.9378 78.2254 28.9344 72.9071 30.3058 65.7826C30.4729 64.9799 30.6402 64.1437 30.841 63.274C33.9516 63.943 37.3634 64.4447 41.0426 64.7458C43.1499 67.6892 45.324 70.3985 47.5315 72.7733C47.0633 73.2416 46.5616 73.6764 46.0933 74.1112C43.1164 76.6532 40.2064 78.493 37.5974 79.396ZM26.6933 58.792C23.0141 57.521 19.9702 55.8819 17.863 54.1092C15.9899 52.5037 15.0533 50.8982 15.0533 49.6272C15.0533 46.8844 19.1675 43.3723 25.9909 40.9641C26.8272 40.663 27.6968 40.3955 28.5999 40.1613C29.5365 43.2385 30.774 46.4495 32.2792 49.6941C30.774 53.0054 29.503 56.2499 28.533 59.3606C27.9309 59.1933 27.2954 58.9926 26.6933 58.792ZM30.3392 33.94C28.9344 26.6817 29.8709 21.1962 32.2458 19.8248C34.7878 18.353 40.3737 20.4603 46.2605 25.6782C46.6285 26.0127 47.0299 26.3472 47.3978 26.7152C45.1902 29.0565 43.016 31.7658 40.9757 34.6758C37.4302 35.0103 34.0185 35.5454 30.8744 36.2479C30.6737 35.4785 30.5064 34.6757 30.3392 33.94ZM62.9512 41.9675C62.2154 40.663 61.446 39.4254 60.6433 38.1878C63.0516 38.4889 65.3595 38.8903 67.5336 39.392C66.8981 41.4658 66.0619 43.6734 65.1254 45.9144C64.4564 44.6099 63.7206 43.3054 62.9512 41.9675ZM49.6723 29.023C51.1775 30.6286 52.6492 32.4348 54.1209 34.4082C52.6492 34.3413 51.144 34.3079 49.6388 34.3079C48.1336 34.3079 46.6619 34.3413 45.1902 34.4082C46.6285 32.4682 48.1336 30.662 49.6723 29.023ZM36.2929 42.0009C35.5572 43.3054 34.8213 44.6099 34.1523 45.9144C33.2157 43.6734 32.413 41.4992 31.744 39.3585C33.8847 38.8903 36.1927 38.4889 38.6009 38.1878C37.7981 39.4254 37.0288 40.6964 36.2929 42.0009ZM38.6678 61.3006C36.1927 61.033 33.8513 60.6651 31.7105 60.1968C32.3795 58.0561 33.2157 55.815 34.1523 53.5406C34.8213 54.8451 35.5572 56.1496 36.2929 57.4541C37.0623 58.7251 37.865 60.0296 38.6678 61.3006ZM49.7392 70.4654C48.2005 68.8264 46.6954 66.9868 45.1902 65.0133C46.6285 65.0802 48.1002 65.1137 49.6054 65.1137C51.144 65.1137 52.6826 65.0802 54.1543 65.0133C52.716 66.9868 51.2444 68.8264 49.7392 70.4654ZM65.1588 53.3733C66.1623 55.6812 67.0319 57.8888 67.7009 60.0296C65.4933 60.5313 63.152 60.9326 60.6433 61.2337C61.4126 59.9961 62.2154 58.6916 62.9512 57.3871C63.754 56.0492 64.4564 54.7113 65.1588 53.3733ZM60.175 55.7816C59.0043 57.8219 57.7668 59.7954 56.5626 61.635C54.3216 61.8023 52.0136 61.8692 49.6388 61.8692C47.2975 61.8692 44.9895 61.8023 42.782 61.6685C41.5109 59.7954 40.2733 57.8219 39.1026 55.8151C37.932 53.8082 36.8617 51.7678 35.8916 49.7274C36.8617 47.6872 37.932 45.6468 39.1026 43.6399C40.2733 41.5996 41.5109 39.6596 42.782 37.82C45.023 37.6527 47.3309 37.5523 49.6723 37.5523C52.0136 37.5523 54.3216 37.6527 56.5626 37.82C57.8002 39.6596 59.0378 41.5996 60.2085 43.6399C61.3791 45.6803 62.483 47.7206 63.453 49.6941C62.4495 51.6675 61.3457 53.7412 60.175 55.7816ZM66.8312 19.7244C69.3733 21.1962 70.3433 27.083 68.7712 34.7761C68.6708 35.2779 68.5705 35.7796 68.4367 36.2813C65.2925 35.5454 61.8808 35.0103 58.3354 34.6758C56.2616 31.7324 54.1209 29.023 51.9468 26.7152C52.5154 26.1464 53.1174 25.6113 53.6861 25.1096C59.2384 20.2596 64.4564 18.3531 66.8312 19.7244Z" fill="white"/>
<path d="M49.639 42.8708C53.3518 42.8708 56.3955 45.8812 56.3955 49.6273C56.3955 53.3402 53.3851 56.3839 49.639 56.3839C45.8928 56.3839 42.8824 53.3736 42.8824 49.6273C42.8824 45.9146 45.8928 42.8708 49.639 42.8708Z" fill="#53C1DE"/>
</g>
<defs>
<clipPath id="clip0">
<rect width="76.4734" height="67.7612" fill="white" transform="translate(11.876 16.0596)"/>
</clipPath>
</defs>
</svg>
