<svg width="101" height="100" viewBox="0 0 101 100" fill="none" xmlns="http://www.w3.org/2000/svg">
<circle cx="50.479" cy="49.9399" r="49.5679" fill="black"/>
<g clip-path="url(#clip0)">
<path d="M84.6428 50.6046C84.6428 31.5894 69.3186 16.1875 50.4327 16.1875C31.5469 16.1875 16.2227 31.5894 16.2227 50.6046C16.2227 65.6902 25.8751 78.5176 39.2987 83.1547C40.1218 82.5675 41.0646 81.8298 41.0646 80.5953C41.0646 78.6983 41.0197 73.8354 41.0197 73.8354C41.0197 73.8354 39.5382 74.0913 37.4132 74.0913C32.0706 74.0913 30.3796 70.6887 29.5864 68.7766C28.5389 66.2924 27.1771 65.1182 25.7404 64.1847C24.8575 63.6126 24.648 62.9351 25.6806 62.7393C30.4095 61.8511 31.6217 68.0992 34.7793 69.1079C37.0391 69.8155 39.9272 69.5144 41.3639 68.5809C41.5585 66.6689 42.9353 65.0128 44.0726 64.1546C36.0364 63.3867 31.2775 60.5864 28.8083 56.0998L28.5389 55.603L27.9253 54.1728L27.7458 53.6609C26.9675 51.3875 26.6234 48.7828 26.6234 45.862C26.6234 40.698 28.2395 38.7407 30.3946 35.9856C28.7484 30.0838 30.9932 26.0639 30.9932 26.0639C30.9932 26.0639 34.465 25.3413 41.0347 30.0537C44.5963 28.5331 54.0842 28.3976 58.5887 29.7074C61.3423 27.8857 66.3855 25.2961 68.4207 26.0188C68.9744 26.9071 70.1566 29.4966 69.139 35.1726C69.8274 36.4222 73.419 39.072 73.434 46.5848C73.3742 49.355 73.0898 51.6886 72.551 53.6609L72.2517 54.6695C72.2517 54.6695 72.0871 55.1513 71.8926 55.603L71.6831 56.0998C69.3037 61.3392 64.4101 63.2965 56.5235 64.0944C59.0825 65.7053 59.8158 67.7228 59.8158 73.203C59.8158 78.6832 59.741 79.4059 59.756 80.6705C59.7709 81.7846 60.6538 82.5826 61.447 83.1848C74.9455 78.5778 84.6428 65.7354 84.6428 50.6046Z" fill="#292929"/>
</g>
<defs>
<clipPath id="clip0">
<rect width="68.5127" height="67.5052" fill="white" transform="translate(16.2227 16.1875)"/>
</clipPath>
</defs>
</svg>
