<svg width="100" height="100" viewBox="0 0 100 100" fill="none" xmlns="http://www.w3.org/2000/svg">
<circle cx="50.0708" cy="49.9399" r="49.5679" fill="black"/>
<g clip-path="url(#clip0)">
<path d="M24.3853 73.9724L33.7573 14.1227C33.8719 13.3887 34.4439 12.81 35.1778 12.6856C35.9117 12.5612 36.643 12.9192 36.9939 13.5742L46.6862 31.6155L50.5496 24.2745C50.8487 23.707 51.4386 23.3516 52.0813 23.3516C52.7241 23.3516 53.3138 23.707 53.6131 24.2745L79.7693 73.9723H24.3853V73.9724Z" fill="#FFA000"/>
<path d="M56.7631 50.6585L46.6815 31.6067L24.385 73.9723L56.7631 50.6585Z" fill="#F57C00"/>
<path d="M79.7694 73.9725L72.591 29.6421C72.4826 29.0056 72.0273 28.4827 71.4109 28.2855C70.7943 28.0884 70.1196 28.2524 69.6618 28.7089L24.385 73.9718L49.4378 87.9929C51.011 88.8696 52.927 88.8696 54.5003 87.9929L79.7694 73.9718V73.9725Z" fill="#FFCA28"/>
<path d="M72.591 29.6424C72.4826 29.0058 72.0273 28.4828 71.4108 28.2857C70.7943 28.0885 70.1195 28.2527 69.6617 28.709L60.6753 37.7001L53.6088 24.2745C53.3097 23.7069 52.7198 23.3516 52.0771 23.3516C51.4344 23.3516 50.8446 23.7069 50.5453 24.2745L46.682 31.6154L36.9892 13.5745C36.6377 12.9192 35.9056 12.5618 35.1708 12.6872C34.436 12.8125 33.8659 13.3926 33.7526 14.1272L24.3849 73.9727H24.3547L24.3849 74.0073L24.6316 74.1282L69.6487 29.1501C70.1062 28.6912 70.7826 28.5263 71.4008 28.7228C72.019 28.9194 72.475 29.4443 72.5823 30.0828L79.7001 74.0158L79.7694 73.9726L72.591 29.6423V29.6424ZM24.4672 73.8906L33.7571 14.5504C33.8702 13.8159 34.4417 13.2358 35.1757 13.1104C35.9098 12.9851 36.6421 13.3423 36.9942 13.9977L46.6859 32.0389L50.5493 24.6981C50.8484 24.1305 51.4383 23.775 52.081 23.775C52.7237 23.775 53.3135 24.1305 53.6128 24.6981L60.5359 37.8383L24.4667 73.8906H24.4672Z" fill="white" fill-opacity="0.2"/>
<path opacity="0.2" d="M54.5003 87.5707C52.9271 88.4473 51.0111 88.4473 49.4379 87.5707L24.4456 73.5885L24.385 73.9729L49.4378 87.9897C51.011 88.8664 52.9271 88.8664 54.5002 87.9897L79.7694 73.9729L79.7045 73.5757L54.5003 87.5709V87.5707Z" fill="#A52714"/>
<path d="M72.5202 29.6514C72.4121 29.015 71.9584 28.4918 71.344 28.2958C70.7298 28.0998 70.0574 28.2627 69.6011 28.719L60.6456 37.7056L53.6044 24.2862C53.3062 23.7188 52.7185 23.3635 52.078 23.3635C51.4377 23.3635 50.85 23.7188 50.5517 24.2862L46.7014 31.624L37.0429 13.5905C36.6926 12.9355 35.963 12.5782 35.2315 12.7036C34.5 12.829 33.9305 13.4086 33.8178 14.143L24.4827 73.9622L49.4479 87.9729C51.0156 88.8491 52.9249 88.8491 54.4927 87.9729L79.6735 73.9622L72.5202 29.6512V29.6514Z" fill="url(#paint0_linear)"/>
</g>
<defs>
<linearGradient id="paint0_linear" x1="22.5565" y1="25.6057" x2="91.3689" y2="61.9768" gradientUnits="userSpaceOnUse">
<stop stop-color="white" stop-opacity="0.1"/>
<stop offset="0.14" stop-color="white" stop-opacity="0.08"/>
<stop offset="0.61" stop-color="white" stop-opacity="0.02"/>
<stop offset="1" stop-color="white" stop-opacity="0"/>
</linearGradient>
<clipPath id="clip0">
<rect width="55.4147" height="76.5731" fill="white" transform="translate(24.3547 12.6611)"/>
</clipPath>
</defs>
</svg>
