<svg width="40" height="40" viewBox="0 0 40 40" fill="none" xmlns="http://www.w3.org/2000/svg">
<path d="M26.0755 0.747559H14.0727C3.1195 0.747559 0.522949 3.34411 0.522949 14.2973V26.3001C0.522949 37.2532 3.1195 39.8498 14.0727 39.8498H26.0755C37.0286 39.8498 39.6252 37.2532 39.6252 26.3001V14.2973C39.6252 3.34411 37.003 0.747559 26.0755 0.747559ZM32.0897 28.6412H29.2512C28.1759 28.6412 27.8448 27.7883 25.9105 25.8284C24.2304 24.1996 23.4862 23.9833 23.072 23.9833C22.4867 23.9833 22.3205 24.1483 22.3205 24.9511V27.5159C22.3205 28.2038 22.1043 28.6168 20.2836 28.6168C17.2728 28.6168 13.9322 26.7962 11.5898 23.4041C8.05722 18.4334 7.0907 14.7103 7.0907 13.9405C7.0907 13.5263 7.25565 13.1389 8.05111 13.1389H10.8957C11.6154 13.1389 11.8891 13.47 12.1689 14.2398C13.5754 18.3002 15.9177 21.8572 16.8843 21.8572C17.2411 21.8572 17.406 21.6923 17.406 20.7819V16.5884C17.2973 14.6541 16.2794 14.4879 16.2794 13.8012C16.2794 13.47 16.5531 13.1389 16.9918 13.1389H21.4652C22.07 13.1389 22.2924 13.47 22.2924 14.1824V19.8398C22.2924 20.4508 22.5661 20.6671 22.7311 20.6671C23.0879 20.6671 23.3934 20.4508 24.0544 19.7885C26.0975 17.4975 27.5613 13.9649 27.5613 13.9649C27.7519 13.5507 28.083 13.1634 28.8027 13.1634H31.6474C32.5002 13.1634 32.6909 13.602 32.5002 14.213C32.1434 15.8674 28.6622 20.7807 28.6622 20.7807C28.3629 21.2768 28.248 21.4931 28.6622 22.0466C28.9677 22.4608 29.9611 23.3198 30.6222 24.0896C31.838 25.4704 32.7727 26.6288 33.022 27.4303C33.3018 28.2258 32.8888 28.64 32.086 28.64L32.0897 28.6412Z" fill="white"/>
</svg>
