<svg width="43" height="35" viewBox="0 0 43 35" fill="none" xmlns="http://www.w3.org/2000/svg">
<path d="M42.1721 4.91244C41.6365 3.03763 40.2973 1.69848 38.4225 1.16282C32.7981 0.627156 27.1736 0.0914948 21.5492 0.359325C15.9248 0.359325 10.3003 0.627156 4.67588 1.16282C3.0689 1.69848 1.46192 3.30546 0.926259 4.91244C-0.141761 13.2705 -0.141761 21.7304 0.926259 30.0885C1.46192 31.9633 2.80107 33.3024 4.67588 33.8381C10.3003 34.3738 15.9248 34.9094 21.5492 34.6416C27.1736 34.6416 32.7981 34.3738 38.4225 33.8381C40.2973 33.3024 41.6365 31.9633 42.1721 30.0885C43.2401 21.7304 43.2401 13.2705 42.1721 4.91244ZM16.1926 25.5354V9.46555L30.1198 17.5005L16.1926 25.5354Z" fill="white"/>
</svg>
