<svg width="100" height="100" viewBox="0 0 100 100" fill="none" xmlns="http://www.w3.org/2000/svg">
<circle cx="49.9293" cy="49.9399" r="49.5679" fill="black"/>
<g clip-path="url(#clip0)">
<path d="M41.3192 67.9536L24.2163 63.2012L20.4047 20.4155H62.2834L58.4694 63.1942L41.3192 67.9536Z" fill="#264DE4"/>
<path d="M55.2031 60.4702L58.4624 23.9126H41.343V64.3162L55.2031 60.4702Z" fill="#2965F1"/>
<path d="M29.1422 39.7834L29.6115 45.0317H41.3429V39.7834H29.1422ZM28.1987 29.1611L28.6752 34.4094H41.3453V29.1611H28.1987ZM41.3429 53.4118L41.3192 53.4189L35.4807 51.8411L35.1086 47.6534H29.8462L30.581 55.8936L41.3216 58.8783L41.3453 58.8713V53.4118H41.3429Z" fill="#EBEBEB"/>
<path d="M53.5128 39.7834L54.4586 29.1611H41.3263V34.4094H48.7127L48.2362 39.7834H41.3263V45.0317H47.781L47.1719 51.8364L41.324 53.4166V58.876L52.0716 55.8936L52.1498 55.0063L53.3824 41.1904L53.5128 39.7834Z" fill="white"/>
<path d="M41.3869 74.6893L37.575 31.9321H79.4538L75.6419 74.6717L58.4793 79.4322L41.3869 74.6893Z" fill="#E44D26"/>
<path d="M58.5145 75.7961L72.3746 71.949L75.6244 35.428H58.5145V75.7961Z" fill="#F16529"/>
<path d="M58.5147 51.2909H51.5758L51.1015 45.9155H58.5147V40.6807H58.4971H45.3573L45.4978 42.0859L46.7802 56.5258H58.5147V51.2909Z" fill="#EBEBEB"/>
<path d="M58.5146 64.9054H58.4971L52.6473 63.3244L52.2784 59.1436H49.4326H47.0084L47.7462 67.3824L58.4794 70.3687L58.5146 70.3511V64.9054Z" fill="#EBEBEB"/>
<path d="M58.4969 51.291V56.5259H64.9439L64.3466 63.3242L58.4969 64.9051V70.3683L69.2477 67.3821L69.3179 66.5037L70.5476 52.6964L70.6882 51.291H69.2653H58.4969Z" fill="white"/>
<path d="M58.4969 40.6807V43.9305V45.8979V45.9155H71.1449H71.1624L71.2678 44.7385L71.4962 42.0859L71.6192 40.6807H58.4969Z" fill="white"/>
</g>
<defs>
<clipPath id="clip0">
<rect width="59.0491" height="59.0491" fill="white" transform="translate(20.4047 20.4155)"/>
</clipPath>
</defs>
</svg>
