<svg width="100" height="100" viewBox="0 0 100 100" fill="none" xmlns="http://www.w3.org/2000/svg">
<circle cx="49.7041" cy="49.9399" r="49.5679" fill="black"/>
<g clip-path="url(#clip0)">
<path d="M64.4911 61.0252C67.3667 60.7277 69.5483 58.2486 69.449 55.2737C69.3499 52.2989 66.8709 49.9189 63.8961 49.9189H63.6978C60.6239 50.0181 58.244 52.5963 58.3433 55.6704C58.4424 57.1578 59.0373 58.4469 59.9297 59.3394C56.5583 65.9833 51.4021 70.8423 43.6676 74.908C38.4123 77.6845 32.9584 78.6761 27.5047 77.982C23.0426 77.387 19.572 75.4038 17.3905 72.1314C14.2174 67.2725 13.9199 62.0168 16.5972 56.7611C18.4812 52.9929 21.456 50.2164 23.34 48.8281C22.9433 47.539 22.3484 45.3574 22.0509 43.7708C7.67286 54.1829 9.16025 68.264 13.5232 74.908C16.7955 79.8661 23.4391 82.9401 30.7769 82.9401C32.7601 82.9401 34.7434 82.7418 36.7265 82.2461C49.4189 79.767 59.0373 72.2306 64.4911 61.0252ZM81.9431 48.7289C74.407 39.9035 63.3012 35.0445 50.6088 35.0445H49.0222C48.1298 33.2596 46.2458 32.0696 44.1634 32.0696H43.9651C40.8912 32.1688 38.5114 34.747 38.6105 37.8211C38.7097 40.7959 41.1887 43.1759 44.1634 43.1759H44.3618C46.5433 43.0767 48.4273 41.6884 49.2206 39.8043H51.0054C58.5415 39.8043 65.681 41.9859 72.1264 46.2499C77.0843 49.5223 80.654 53.7862 82.6372 58.9428C84.3229 63.1076 84.2238 67.1732 82.4389 70.644C79.6625 75.8995 75.002 78.7753 68.8541 78.7753C64.8877 78.7753 61.1197 77.5853 59.1364 76.6929C58.0458 77.6845 56.0626 79.2711 54.6744 80.2628C58.9382 82.2461 63.3012 83.3368 67.4659 83.3368C76.9851 83.3368 84.0254 78.0812 86.7028 72.8255C89.5784 67.0741 89.38 57.1578 81.9431 48.7289ZM31.5702 62.711C31.6694 65.6858 34.1483 68.0658 37.1231 68.0658H37.3215C40.3954 67.9665 42.7752 65.3883 42.6761 62.3143C42.5769 59.3394 40.098 56.9595 37.1231 56.9595H36.9248C36.7265 56.9595 36.4291 56.9595 36.2307 57.0586C32.1652 50.3156 30.4794 42.9775 31.0744 35.0445C31.4711 29.0947 33.4543 23.9383 36.9248 19.6743C39.8005 16.0052 45.3533 14.2203 49.1214 14.1211C59.6323 13.9228 64.0944 27.0123 64.3919 32.268C65.681 32.5654 67.8625 33.2596 69.3499 33.7554C68.16 17.691 58.244 9.36133 48.7247 9.36133C39.8005 9.36133 31.5702 15.8069 28.298 25.3265C23.7366 38.0194 26.7114 50.2164 32.2644 59.8352C31.7686 60.5294 31.4711 61.6201 31.5702 62.711Z" fill="#764ABC"/>
</g>
<defs>
<clipPath id="clip0">
<rect width="78.4094" height="74.5374" fill="white" transform="translate(10.4993 8.79932)"/>
</clipPath>
</defs>
</svg>
