<svg width="100" height="100" viewBox="0 0 100 100" fill="none" xmlns="http://www.w3.org/2000/svg">
<circle cx="50.2954" cy="49.9399" r="49.5679" fill="black"/>
<g clip-path="url(#clip0)">
<path d="M20.2871 49.9402V79.9487H50.2957H80.3042V49.9402V19.9316H50.2957H20.2871V49.9402Z" fill="#007ACC"/>
<path d="M33.5591 50.1392L33.54 52.597H37.446H41.3518V63.6954V74.7939H44.1145H46.8772V63.6954V52.597H50.783H54.689V50.1869C54.689 48.8531 54.6603 47.7385 54.6223 47.71C54.5937 47.6718 49.8399 47.6528 44.0764 47.6624L33.5877 47.6909L33.5591 50.1392Z" fill="white"/>
<path d="M68.7146 47.6213C70.2388 48.0024 71.4011 48.6787 72.4681 49.7838C73.0206 50.3745 73.8399 51.4509 73.9066 51.7082C73.9256 51.7844 71.3154 53.5373 69.734 54.5185C69.6768 54.5566 69.4482 54.3089 69.191 53.9279C68.4194 52.8037 67.6096 52.3179 66.3711 52.2321C64.5515 52.1083 63.3798 53.0609 63.3893 54.6519C63.3893 55.1186 63.456 55.3949 63.6466 55.776C64.0466 56.6048 64.7897 57.1002 67.1237 58.11C71.4202 59.9582 73.2588 61.1776 74.402 62.9114C75.6785 64.8453 75.9643 67.9318 75.0974 70.2278C74.1448 72.7237 71.7822 74.4194 68.4574 74.9815C67.4286 75.1625 64.9898 75.1339 63.8847 74.9339C61.4745 74.5051 59.1881 73.3144 57.7782 71.752C57.2257 71.1422 56.1492 69.5514 56.2159 69.4371C56.2444 69.3989 56.4921 69.2465 56.7684 69.0845C57.0351 68.9322 58.0449 68.3511 58.9975 67.7985L60.7219 66.7982L61.0839 67.3316C61.5888 68.1033 62.6939 69.1608 63.3607 69.5133C65.2755 70.5231 67.9049 70.3801 69.2005 69.2179C69.753 68.713 69.9816 68.1891 69.9816 67.4174C69.9816 66.722 69.896 66.4172 69.5339 65.8932C69.0672 65.2263 68.1144 64.6643 65.4089 63.4925C62.3128 62.1587 60.9791 61.3299 59.7597 60.0153C59.0548 59.2531 58.3879 58.0338 58.1116 57.0144C57.883 56.1666 57.8259 54.0422 58.0069 53.1848C58.6451 50.1935 60.9029 48.1072 64.161 47.488C65.2184 47.2879 67.6762 47.3641 68.7146 47.6213Z" fill="white"/>
</g>
<defs>
<clipPath id="clip0">
<rect width="60.0171" height="60.0171" fill="white" transform="translate(20.2871 19.9316)"/>
</clipPath>
</defs>
</svg>
